<?xml version="1.0" encoding="utf-8" ?>
<svg xmlns="http://www.w3.org/2000/svg" xmlns:xlink="http://www.w3.org/1999/xlink" width="1428" height="508">
	<path transform="scale(15.8667 15.875)" d="M1.36414 0L32 0C31.4423 6.41503 30.4101 12.9918 29.3397 19.3469C32.4169 14.5009 34.5915 8.69759 35.7088 3.07246C35.8409 2.40738 36.1822 1.29651 36.0297 0.636346C35.9814 0.427231 35.9023 0.194889 35.8125 0L57.6616 0C58.7677 0.686695 60.5571 1.37676 60.8745 2.77156Q60.8856 2.81962 60.8945 2.86811C61.2733 5.48939 60.8682 12.5662 59.3073 14.6982C58.8176 15.3671 57.5934 15.954 56.8733 16.388C57.0949 17.5451 58.5523 17.704 58.8775 18.6731C59.3258 20.0087 58.2037 29.6232 57.4049 30.8004Q57.2466 31.0299 57.0434 31.2207C54.7162 31.3702 52.3477 31.1887 50.0191 31.0961C50.997 29.4998 52.0106 22.3865 51.6064 20.7003C51.505 20.2771 51.3251 20.0292 50.9448 19.8049C50.6195 19.613 50.1109 19.5487 49.7399 19.4762C49.049 19.87 48.8008 20.407 48.5915 21.1704C47.9601 23.4735 47.8431 29.9115 46.425 31.3232C44.2121 31.2655 41.9447 31.1098 39.7387 31.3057C40.2903 30.3396 43.5665 6.28501 43.6408 3.6188L43.3718 3.17265C42.2057 4.26859 41.3225 9.95689 40.6918 11.8119C40.1459 13.4173 39.437 14.9757 38.6654 16.484C36.2691 21.1682 33.0491 25.5087 29.0036 28.8934C27.7243 29.9637 26.0498 30.8516 24.8936 32L24.4645 32C20.0475 23.1508 19.9412 15.7757 20.5338 6.10056C17.513 6.21546 14.4677 6.18251 11.4448 6.15544L10.3309 12.9292C12.6073 13.0412 14.9082 13.0146 17.1882 13.054C16.7232 15.0354 16.4304 17.0318 16.1398 19.0447L9.53458 19.1246C9.24736 23.1583 8.43111 27.4046 7.75545 31.3956C5.49022 31.2398 3.20239 31.2222 0.932414 31.1479C1.36702 21.8817 3.90266 12.6719 4.51151 3.39921C3.61194 2.09706 2.54162 1.04278 1.36414 0ZM52.1045 13.8802C53.2393 13.0696 53.4838 10.5022 53.7115 9.13064C53.8335 8.39536 53.7934 7.16016 53.3361 6.53133C53.0794 6.17841 52.8292 6.02057 52.4004 5.96045C51.8607 5.88478 51.1865 6.04451 50.6459 6.12261C50.3661 7.95177 49.0566 12.1156 49.9764 13.7294C50.6563 14.0591 51.351 14.0438 52.1045 13.8802Z"/>
	<path transform="scale(15.8667 15.875)" d="M74.1595 0L88.5786 0C88.7576 0.283178 88.9005 0.646913 88.9557 0.977278C89.4268 3.79686 89.0509 7.36867 89.0713 10.2515C89.1171 16.7477 89.6113 23.5897 89.0238 30.0413C88.9802 30.5196 88.8352 30.9172 88.5573 31.3087C87.0946 31.6867 83.531 31.2028 81.8946 31.0975Q81.9506 30.9084 81.9851 30.7143C82.1793 29.5896 82.4546 27.2189 81.7676 26.2459L77.383 26.1098C77.4282 26.2425 77.4671 26.3958 77.461 26.5372C77.4122 27.6764 77.0999 29.5973 76.2531 30.3722C74.5803 31.903 70.7136 31.2203 68.6538 31.1288C68.9619 30.825 69.1997 30.4526 69.382 30.0618C70.5108 27.6412 71.0141 24.3713 71.7551 21.7678C73.3916 16.018 75.4641 10.1066 76.6557 4.262C76.7471 3.81362 76.7485 3.45715 76.5896 3.02134Q76.595 2.9467 76.5904 2.87201C76.5374 1.88811 74.8707 0.635132 74.1595 0ZM79.2837 19.7886C79.9244 19.7654 81.6374 19.8928 82.1315 19.5917C82.6414 18.0629 83.189 8.78863 82.5901 7.60009C82.5547 7.52977 82.4064 7.42921 82.3427 7.37293C81.7272 9.54828 78.872 18.1289 79.2837 19.7886Z"/>
	<path transform="scale(15.8667 15.875)" d="M60.6701 0L71.0984 0Q71.1833 0.139674 71.2481 0.289751C71.7665 1.49319 67.7988 28.9048 66.9041 31.1457C64.8044 31.6261 61.9822 31.2208 59.7976 31.2436C59.885 31.1179 59.9593 30.9765 60.0307 30.8409C60.6795 29.6083 64.0777 4.65934 63.6874 3.37C63.6877 3.35242 63.6878 3.33481 63.6872 3.31724C63.6572 2.46491 61.3108 0.597942 60.6701 0Z"/>
</svg>
